Coordinates
version=1
nRows=27
nColumns=12
inDegrees=yes

Units are S.I. units (second, meters, Newtons, ...)
Angles are in degrees

endheader
time	SC_y	SC_z	SC_x	AC_y	AC_z	AC_x	GH_y	GH_z	GH_yy	EL_x	PS_y
       0.0              -39.78          18.89          27.98          35.36         -8.955         -12.77         -36.58          41.28          106.1          23.32          132.6
   0.02955              -39.78          18.88          27.98          35.36         -8.956         -12.77         -36.57          41.28          106.1          23.34          132.6
    0.0591              -39.78          18.88          27.99          35.36         -8.956         -12.76         -36.55          41.27          106.0          23.35          132.6
   0.08865              -39.78          18.88          27.99          35.37         -8.957         -12.76         -36.53          41.26          106.0          23.37          132.6
    0.1182              -39.78          18.88           28.0          35.37         -8.958         -12.76         -36.51          41.26          105.9          23.39          132.5
    0.1478              -39.78          18.88           28.0          35.37         -8.959         -12.75         -36.49          41.25          105.9          23.42          132.5
    0.1773              -39.78          18.87          28.01          35.37          -8.96         -12.75         -36.46          41.24          105.9          23.44          132.5
    0.2069              -39.77          18.87          28.02          35.38         -8.962         -12.74         -36.44          41.23          105.8          23.46          132.5
    0.2364              -39.77          18.87          28.02          35.38         -8.963         -12.74         -36.41          41.22          105.8          23.49          132.4
     0.266              -39.77          18.87          28.03          35.38         -8.964         -12.73         -36.38          41.21          105.7          23.52          132.4
    0.2955              -39.77          18.86          28.04          35.39         -8.966         -12.73         -36.35           41.2          105.6          23.55          132.4
    0.3251              -39.77          18.86          28.05          35.39         -8.967         -12.72         -36.32          41.19          105.6          23.58          132.3
    0.3546              -39.77          18.86          28.06           35.4         -8.969         -12.72         -36.28          41.17          105.5          23.62          132.3
    0.3842              -39.77          18.85          28.07           35.4         -8.971         -12.71         -36.24          41.16          105.4          23.66          132.3
    0.4137              -39.77          18.85          28.08          35.41         -8.973          -12.7          -36.2          41.14          105.4           23.7          132.2
    0.4433              -39.76          18.85          28.09          35.41         -8.975          -12.7         -36.16          41.13          105.3          23.74          132.2
    0.4728              -39.76          18.84           28.1          35.42         -8.977         -12.69         -36.11          41.11          105.2          23.79          132.1
    0.5024              -39.76          18.84          28.12          35.43          -8.98         -12.68         -36.05          41.09          105.1          23.85          132.1
    0.5319              -39.76          18.83          28.13          35.43         -8.983         -12.67         -35.99          41.07          105.0           23.9          132.0
    0.5615              -39.76          18.83          28.15          35.44         -8.986         -12.66         -35.93          41.04          104.8          23.97          131.9
     0.591              -39.75          18.82          28.17          35.45         -8.989         -12.65         -35.86          41.02          104.7          24.04          131.9
    0.6206              -39.75          18.81          28.19          35.46         -8.993         -12.63         -35.78          40.99          104.6          24.12          131.8
    0.6501              -39.75           18.8          28.21          35.47         -8.997         -12.62          -35.7          40.96          104.4           24.2          131.7
    0.6797              -39.75          18.79          28.24          35.48         -9.002          -12.6          -35.6          40.92          104.2          24.29          131.6
    0.7092              -39.74          18.79          28.27           35.5         -9.007         -12.59         -35.49          40.88          104.0           24.4          131.5
    0.7388              -39.74          18.77           28.3          35.51         -9.012         -12.57         -35.38          40.84          103.8          24.52          131.4
    0.7683              -39.73          18.76          28.34          35.53         -9.019         -12.55         -35.24          40.79          103.5          24.65          131.2
